<svg width="4146" height="1000" viewBox="0 0 4146 1000" fill="none" xmlns="http://www.w3.org/2000/svg">
<g clip-path="url(#clip0)">
<g clip-path="url(#clip1)">
<path fill-rule="evenodd" clip-rule="evenodd" d="M680.914 629.181C662 574 640.5 537.5 579 518C593.478 540.798 591.778 554.72 590.213 567.538C588.415 582.271 586.794 595.544 610.118 619.156C567.882 605.148 455.479 542.924 428.884 447.327C496.77 411.028 504.032 368.3 511.557 324.023C520.063 273.979 528.905 221.956 626 175C488.954 175 408.884 245.575 387.192 314.112C386.294 310.814 385.372 307.458 384.438 304.057L384.432 304.037L384.431 304.033C371.558 257.173 356.395 201.979 370.5 175C295.5 265 237 356 376.463 461.829C382.21 653.626 521.953 732.785 589.556 767.398C562.82 763.739 548.94 769.963 535.69 775.904C522.151 781.975 509.27 787.751 484 782.388C527 836 633.5 840 684.364 782.388C729.765 787.08 767.718 763.12 801.226 739.971L783 724.5L811.574 694.382C772.418 647.354 731.326 633.758 680.914 629.181ZM729 716.5C729 724.784 722.284 731.5 714 731.5C705.716 731.5 699 724.784 699 716.5C699 708.216 705.716 701.5 714 701.5C722.284 701.5 729 708.216 729 716.5Z" fill="#27CBFF"/>
<path d="M604.558 249.273C612.658 233.565 631.958 227.397 647.665 235.497C737.772 281.959 799.5 375.994 799.5 484.5C799.5 519.004 793.244 552.12 781.777 582.727C775.576 599.277 757.133 607.666 740.584 601.466C724.034 595.265 715.644 576.822 721.845 560.273C730.663 536.737 735.5 511.22 735.5 484.5C735.5 400.876 687.987 328.295 618.335 292.38C602.627 284.28 596.459 264.981 604.558 249.273Z" fill="#27CBFF"/>
<path d="M274.945 432.107C292.559 433.548 305.67 448.995 304.229 466.61C303.746 472.503 303.5 478.469 303.5 484.5C303.5 541.851 325.809 593.923 362.286 632.622C377.815 649.097 395.894 663.125 415.877 674.074C431.376 682.567 437.056 702.016 428.563 717.515C420.071 733.014 400.622 738.693 385.123 730.201C368.933 721.33 353.721 710.909 339.686 699.14L243.627 795.198C231.131 807.695 210.869 807.695 198.373 795.198C185.876 782.702 185.876 762.44 198.373 749.943L295.626 652.69C260.404 605.87 239.5 547.601 239.5 484.5C239.5 476.725 239.818 469.018 240.442 461.39C241.883 443.776 257.331 430.665 274.945 432.107Z" fill="#27CBFF"/>
<path d="M691 462.5C691 484.591 673.091 502.5 651 502.5C628.909 502.5 611 484.591 611 462.5C611 440.409 628.909 422.5 651 422.5C673.091 422.5 691 440.409 691 462.5Z" fill="#27CBFF"/>
<path d="M555 437.5C568.255 437.5 579 426.755 579 413.5C579 400.245 568.255 389.5 555 389.5C541.745 389.5 531 400.245 531 413.5C531 426.755 541.745 437.5 555 437.5Z" fill="#27CBFF"/>
<path d="M595 336.5C595 345.337 587.837 352.5 579 352.5C570.163 352.5 563 345.337 563 336.5C563 327.663 570.163 320.5 579 320.5C587.837 320.5 595 327.663 595 336.5Z" fill="#27CBFF"/>
</g>
<path d="M1021 711V324.6H1330V429H1166.2V463.8H1307.2V571.8H1166.2V711H1021ZM1374.88 711V324.6H1520.08V711H1374.88ZM1585.8 711V324.6H1707.6L1815.6 475.8V324.6H1960.8V711H1838.4L1731 559.8V711H1585.8ZM2026.98 711V324.6H2210.58C2251.38 324.6 2286.78 331.2 2316.78 344.4C2346.78 357.2 2369.98 378 2386.38 406.8C2402.78 435.2 2410.98 473 2410.98 520.2C2410.98 565 2402.78 601.4 2386.38 629.4C2370.38 657.4 2347.38 678 2317.38 691.2C2287.78 704.4 2252.18 711 2210.58 711H2026.98ZM2172.18 600.6H2193.78C2208.18 600.6 2220.58 598.6 2230.98 594.6C2241.38 590.6 2249.38 582.8 2254.98 571.2C2260.58 559.6 2263.38 542.6 2263.38 520.2C2263.38 497.8 2260.78 481.2 2255.58 470.4C2250.38 459.2 2242.58 452 2232.18 448.8C2222.18 445.2 2209.38 443.4 2193.78 443.4H2172.18V600.6ZM2602.91 711V324.6H2911.91V429H2748.11V463.8H2889.11V571.8H2748.11V711H2602.91ZM2956.8 711V324.6H3102V711H2956.8ZM3167.71 711V324.6H3289.51L3397.51 475.8V324.6H3542.71V711H3420.31L3312.91 559.8V711H3167.71ZM3742.7 717C3715.5 717 3689.3 714.8 3664.1 710.4C3638.9 705.6 3617.7 698.8 3600.5 690V581.4C3619.3 590.6 3640.5 598.2 3664.1 604.2C3687.7 610.2 3708.7 613.2 3727.1 613.2C3739.1 613.2 3748.5 611.8 3755.3 609C3762.1 605.8 3765.5 601.4 3765.5 595.8C3765.5 588.6 3759.1 583 3746.3 579C3733.5 575 3716.7 569.2 3695.9 561.6C3671.1 552 3651.5 542 3637.1 531.6C3622.7 521.2 3612.3 508.8 3605.9 494.4C3599.9 479.6 3596.9 461.2 3596.9 439.2C3596.9 358.8 3653.5 318.6 3766.7 318.6C3779.5 318.6 3793.7 319.6 3809.3 321.6C3825.3 323.2 3840.7 325.4 3855.5 328.2C3870.7 331 3883.5 334 3893.9 337.2V446.4C3871.9 437.2 3852.5 431 3835.7 427.8C3818.9 424.6 3804.1 423 3791.3 423C3781.3 423 3771.1 424 3760.7 426C3750.3 427.6 3745.1 431.6 3745.1 438C3745.1 443.2 3749.7 447.4 3758.9 450.6C3768.1 453.4 3782.7 457.6 3802.7 463.2C3834.7 472 3858.7 482.6 3874.7 495C3890.7 507 3901.3 521.4 3906.5 538.2C3912.1 554.6 3914.9 573.6 3914.9 595.2C3914.9 632 3900.5 661.6 3871.7 684C3842.9 706 3799.9 717 3742.7 717Z" fill="#27CBFF"/>
</g>
<defs>
<clipPath id="clip0">
<rect width="4146" height="1000" fill="white"/>
</clipPath>
<clipPath id="clip1">
<rect width="1000" height="1000" fill="white"/>
</clipPath>
</defs>
</svg>
