<svg width="256" height="207" viewBox="0 0 256 207" fill="none" xmlns="http://www.w3.org/2000/svg">
<path fill-rule="evenodd" clip-rule="evenodd" d="M67.2269 13.279L68.4342 36.5584L72.0808 20.5058C76.2903 25.8827 83.1676 30.0023 94.3838 29.8755C103.243 29.7754 112.738 24.8515 122.869 19.5979C143.852 8.716 167.563 -3.58004 194.001 22.6502C152.488 29.3092 155.216 77.0773 155.899 84.5248C157.898 85.4898 159.308 86.1881 160 86.5337V86.2748C168.231 83.6446 174.908 77.0602 182.211 69.8586C197.413 54.867 215.328 37.2007 255.62 46.9621C225.182 65.7172 225.182 90.9289 225.182 98.7691C225.182 106.609 225.182 131.821 255.62 150.576C215.328 160.338 197.413 142.671 182.211 127.68C174.908 120.478 168.231 113.894 160 111.263V111.005C159.167 111.421 157.294 112.348 154.605 113.636C166.767 117.955 171.96 126.483 178.253 136.816C186.104 149.708 195.666 165.411 222.609 179.258C222.609 179.258 151 184.5 132.5 146C132.5 154 135.5 162.5 135.5 162.5C135.5 162.5 121.588 156.538 113.081 131.379C105.93 134.036 98.5613 136.528 91.4332 138.547C95.6307 143.953 93.1123 154.017 90.3599 165.017C86.4331 180.709 82.0297 198.306 95.9709 207C55 190 55 161 55 142.189L55.0291 142.193V141.816C51.7815 140.839 36.5718 136.087 27.8251 130.291C14.168 121.241 0 98.8624 0 98.8624C0 98.8624 14.168 76.4839 27.8251 67.4336C36.5718 61.6373 51.7815 56.8862 55.0291 55.909V55.1099C55.2766 55.0435 55.528 54.9807 55.7831 54.9215C55.5197 54.9452 55.2586 54.9713 55 54.9999C55 54.9999 53.6121 15.2181 64.1846 0.169678L61.0772 34.9158L67.2269 13.279ZM34.4353 109.955C40.5482 109.955 45.5038 104.989 45.5038 98.8624C45.5038 92.7361 40.5482 87.7699 34.4353 87.7699C28.3223 87.7699 23.3667 92.7361 23.3667 98.8624C23.3667 104.989 28.3223 109.955 34.4353 109.955ZM156 107.5V89.4999C149.5 101 126 120.5 95 134.5C119 128.5 142.5 117.5 156 107.5ZM68 91.9999V111C92.2556 107.696 105 91.9999 105 91.9999C105 91.9999 80.3334 93.2391 68 91.9999ZM157.5 46.4697C152.3 50.0697 149.667 72.1666 149.5 79.9999C149.5 79.9999 136.5 68.4999 117.5 62.4697C123 55.4697 140.3 48.8697 157.5 46.4697ZM82 196.5C77.3333 193.167 66 183.5 64.5 174.5C69.7 178.1 73.5 176 77 172C77 172.626 76.971 173.348 76.9385 174.157L76.9385 174.157C76.7375 179.162 76.4042 187.461 82 196.5ZM152.675 118.556C152.481 118.675 152.293 118.79 152.11 118.903C149.291 120.633 147.481 121.744 139.5 125.5C160.5 125.5 170.175 133.556 170.175 133.556C170.175 133.556 165.5 123 152.675 118.556ZM209.133 136C200.222 133.277 194.742 127.736 189.175 122.106C183.496 116.364 177.727 110.53 168.133 107.5C189.261 110.448 197.835 106.154 202.87 103.632L203.133 103.5C196.49 115.362 206.058 130.977 208.76 135.388L208.763 135.392C208.907 135.627 209.032 135.831 209.133 136Z" fill="#45B3FF"/>
</svg>
